<?xml version="1.0" encoding="UTF-8"?>
<svg xmlns="http://www.w3.org/2000/svg" height="16px" viewBox="0 0 16 16" width="16px">
  <path d="m 3 1 c -1.09375 0 -2 0.90625 -2 2 v 10 c 0 1.09375 0.90625 2 2 2 h 10 c 1.09375 0 2 -0.90625 2 -2 v -8 l -4 -4 z m 0 2 h 9.585938 l 2.414062 2.414062 v 7.585938 c 0 0.550781 -0.449219 1 -1 1 h -10 c -0.550781 0 -1 -0.449219 -1 -1 v -9 c 0 -0.550781 0.449219 -1 1 -1 z m 5 0 v 5 h -4 v 4 h 8 v -4 h -1 v -5 z m 1 7 h 2 v 1 h -2 z m -5 2 l 2 2 h -2 z m 0 0" fill="currentColor"/>
</svg>
