<?xml version="1.0" encoding="UTF-8"?>
<svg xmlns="http://www.w3.org/2000/svg" height="16px" viewBox="0 0 16 16" width="16px">
  <path d="m 8 1 c -1.644531 0 -3.109375 0.550781 -4.292969 1.429688 l 1.410157 1.40625 c 0.839843 -0.53125 1.820312 -0.835938 2.882812 -0.835938 3.023438 0 5.488281 2.480469 5.488281 5.5 s -2.464843 5.5 -5.488281 5.5 c -3.019531 0 -5.488281 -2.480469 -5.488281 -5.5 c 0 -0.167969 0.023437 -0.34375 0.039062 -0.511719 l -1.980469 -1.972656 c -0.359374 0.765625 -0.558593 1.628906 -0.558593 2.484375 c 0 4.132812 3.367187 7.5 7.5 7.5 s 7.5 -3.367188 7.5 -7.5 s -3.367188 -7.5 -7.5 -7.5 z m -1.984375 4.003906 l -4.015625 3.996094 l 4.015625 4.007812 v -2.507812 h 6 v -3 h -6 z m 0 0" fill="currentColor"/>
</svg>
