<?xml version="1.0" encoding="UTF-8"?>
<svg xmlns="http://www.w3.org/2000/svg" height="16px" viewBox="0 0 16 16" width="16px">
  <path d="m 6 1 c -2.757812 0 -5 2.242188 -5 5 s 2.242188 5 5 5 c 1.125 0 2.164062 -0.367188 3 -1 l 4.5 5 c 0.363281 0.339844 0.953125 0.351562 1.328125 0.011719 c 0.371094 -0.339844 0.390625 -0.917969 0.039063 -1.28125 l -4.632813 -5.136719 c 0.472656 -0.773438 0.765625 -1.667969 0.765625 -2.59375 c 0 -2.757812 -2.242188 -5 -5 -5 z m 0 2 c 1.671875 0 3 1.328125 3 3 s -1.328125 3 -3 3 s -3 -1.328125 -3 -3 s 1.328125 -3 3 -3 z m -1 1 v 1 h -1 v 2 h 1 v 1 h 2 v -1 h 1 v -2 h -1 v -1 z m 0 0" fill="currentColor"/>
</svg>
